<?xml version="1.0" standalone="no"?><!DOCTYPE svg PUBLIC "-//W3C//DTD SVG 1.1//EN" "http://www.w3.org/Graphics/SVG/1.1/DTD/svg11.dtd"><svg width="800" height="800" version="1.1" xmlns="http://www.w3.org/2000/svg" xmlns:xlink="http://www.w3.org/1999/xlink"><defs xmlns="http://www.w3.org/1999/xhtml"><style type="text/css"><![CDATA[]]></style></defs><rect x="0" y="0" width="800" height="800" fill="rgb(0, 0, 0)" stroke="none"/><polygon points="600 100 700 220 400 550 100 220 200 100" fill="rgb(255, 255, 255)" stroke="rgb(255, 255, 255)" stroke-width="3"/><line x1="200" y1="95" x2="300" y2="220" fill="rgb(128, 128, 128)" stroke="rgb(0, 0, 0)" stroke-width="15"/><line x1="300" y1="220" x2="400" y2="95" fill="rgb(128, 128, 128)" stroke="rgb(0, 0, 0)" stroke-width="15"/><line x1="400" y1="100" x2="500" y2="220" fill="rgb(128, 128, 128)" stroke="rgb(0, 0, 0)" stroke-width="15"/><line x1="500" y1="220" x2="600" y2="95" fill="rgb(128, 128, 128)" stroke="rgb(0, 0, 0)" stroke-width="15"/><line x1="95" y1="220" x2="705" y2="220" fill="rgb(128, 128, 128)" stroke="rgb(0, 0, 0)" stroke-width="15"/><line x1="300" y1="220" x2="400" y2="555" fill="rgb(128, 128, 128)" stroke="rgb(0, 0, 0)" stroke-width="15"/><line x1="500" y1="220" x2="400" y2="555" fill="rgb(128, 128, 128)" stroke="rgb(0, 0, 0)" stroke-width="15"/><polygon points="311 229 490 229 400 542" fill="rgb(255, 255, 255)" stroke="rgb(255, 255, 255)"/><path d="M 0 0 Q -50 40 0 0 Q -50 100 0 100 Q 50 100 0 0 Z" transform="translate(400 560)" fill="rgb(255, 255, 255)" stroke="rgb(0, 0, 0)"/></svg>